<mxfile host="app.diagrams.net" modified="2021-07-04T07:54:01.660Z" agent="5.0 (Windows NT 10.0; Win64; x64) AppleWebKit/537.36 (KHTML, like Gecko) Chrome/91.0.4472.124 Safari/537.36" etag="L0K-gNvtllz9BRikdg60" version="14.8.1" type="github">
  <diagram id="prtHgNgQTEPvFCAcTncT" name="Page-1">
    <mxGraphModel dx="621" dy="696" grid="1" gridSize="10" guides="1" tooltips="1" connect="1" arrows="1" fold="1" page="1" pageScale="1" pageWidth="827" pageHeight="1169" math="0" shadow="0">
      <root>
        <mxCell id="0" />
        <mxCell id="1" parent="0" />
        <mxCell id="Dfv1Ka44aFAMhyJm6wYF-19" value="" style="rounded=0;whiteSpace=wrap;html=1;" vertex="1" parent="1">
          <mxGeometry x="500" y="180" width="200" height="230" as="geometry" />
        </mxCell>
        <mxCell id="Dfv1Ka44aFAMhyJm6wYF-18" value="" style="rounded=0;whiteSpace=wrap;html=1;" vertex="1" parent="1">
          <mxGeometry x="130" y="180" width="200" height="230" as="geometry" />
        </mxCell>
        <mxCell id="Dfv1Ka44aFAMhyJm6wYF-15" style="edgeStyle=orthogonalEdgeStyle;rounded=0;orthogonalLoop=1;jettySize=auto;html=1;exitX=1;exitY=0.25;exitDx=0;exitDy=0;entryX=0;entryY=0.5;entryDx=0;entryDy=0;" edge="1" parent="1" source="Dfv1Ka44aFAMhyJm6wYF-3" target="Dfv1Ka44aFAMhyJm6wYF-13">
          <mxGeometry relative="1" as="geometry">
            <Array as="points">
              <mxPoint x="520" y="285" />
              <mxPoint x="520" y="220" />
            </Array>
          </mxGeometry>
        </mxCell>
        <mxCell id="Dfv1Ka44aFAMhyJm6wYF-16" style="edgeStyle=orthogonalEdgeStyle;rounded=0;orthogonalLoop=1;jettySize=auto;html=1;exitX=1;exitY=0.75;exitDx=0;exitDy=0;entryX=0;entryY=0.5;entryDx=0;entryDy=0;" edge="1" parent="1" source="Dfv1Ka44aFAMhyJm6wYF-3" target="Dfv1Ka44aFAMhyJm6wYF-14">
          <mxGeometry relative="1" as="geometry">
            <Array as="points">
              <mxPoint x="520" y="315" />
              <mxPoint x="520" y="370" />
            </Array>
          </mxGeometry>
        </mxCell>
        <mxCell id="Dfv1Ka44aFAMhyJm6wYF-3" value="&lt;font style=&quot;font-size: 18px&quot;&gt;单片机MCU&lt;/font&gt;" style="rounded=0;whiteSpace=wrap;html=1;" vertex="1" parent="1">
          <mxGeometry x="354" y="270" width="120" height="60" as="geometry" />
        </mxCell>
        <mxCell id="Dfv1Ka44aFAMhyJm6wYF-10" style="edgeStyle=orthogonalEdgeStyle;rounded=0;orthogonalLoop=1;jettySize=auto;html=1;exitX=1;exitY=0.5;exitDx=0;exitDy=0;entryX=0;entryY=0.25;entryDx=0;entryDy=0;" edge="1" parent="1" source="Dfv1Ka44aFAMhyJm6wYF-6" target="Dfv1Ka44aFAMhyJm6wYF-3">
          <mxGeometry relative="1" as="geometry">
            <Array as="points">
              <mxPoint x="310" y="220" />
              <mxPoint x="310" y="285" />
            </Array>
          </mxGeometry>
        </mxCell>
        <mxCell id="Dfv1Ka44aFAMhyJm6wYF-6" value="传感器A" style="rounded=0;whiteSpace=wrap;html=1;" vertex="1" parent="1">
          <mxGeometry x="160" y="200" width="120" height="40" as="geometry" />
        </mxCell>
        <mxCell id="Dfv1Ka44aFAMhyJm6wYF-11" style="edgeStyle=orthogonalEdgeStyle;rounded=0;orthogonalLoop=1;jettySize=auto;html=1;exitX=1;exitY=0.5;exitDx=0;exitDy=0;entryX=0;entryY=0.5;entryDx=0;entryDy=0;" edge="1" parent="1" source="Dfv1Ka44aFAMhyJm6wYF-7" target="Dfv1Ka44aFAMhyJm6wYF-3">
          <mxGeometry relative="1" as="geometry">
            <Array as="points">
              <mxPoint x="300" y="280" />
              <mxPoint x="300" y="300" />
            </Array>
          </mxGeometry>
        </mxCell>
        <mxCell id="Dfv1Ka44aFAMhyJm6wYF-7" value="传感器B" style="rounded=0;whiteSpace=wrap;html=1;" vertex="1" parent="1">
          <mxGeometry x="160" y="260" width="120" height="40" as="geometry" />
        </mxCell>
        <mxCell id="Dfv1Ka44aFAMhyJm6wYF-12" style="edgeStyle=orthogonalEdgeStyle;rounded=0;orthogonalLoop=1;jettySize=auto;html=1;exitX=1;exitY=0.5;exitDx=0;exitDy=0;entryX=0;entryY=0.75;entryDx=0;entryDy=0;" edge="1" parent="1" source="Dfv1Ka44aFAMhyJm6wYF-8" target="Dfv1Ka44aFAMhyJm6wYF-3">
          <mxGeometry relative="1" as="geometry">
            <Array as="points">
              <mxPoint x="310" y="340" />
              <mxPoint x="310" y="315" />
            </Array>
          </mxGeometry>
        </mxCell>
        <mxCell id="Dfv1Ka44aFAMhyJm6wYF-8" value="传感器C" style="rounded=0;whiteSpace=wrap;html=1;" vertex="1" parent="1">
          <mxGeometry x="160" y="320" width="120" height="40" as="geometry" />
        </mxCell>
        <mxCell id="Dfv1Ka44aFAMhyJm6wYF-9" value="" style="endArrow=none;dashed=1;html=1;dashPattern=1 3;strokeWidth=2;" edge="1" parent="1">
          <mxGeometry width="50" height="50" relative="1" as="geometry">
            <mxPoint x="219.71" y="400" as="sourcePoint" />
            <mxPoint x="219.71" y="370" as="targetPoint" />
          </mxGeometry>
        </mxCell>
        <mxCell id="Dfv1Ka44aFAMhyJm6wYF-13" value="&lt;font style=&quot;font-size: 18px&quot;&gt;信息显示&lt;/font&gt;" style="rounded=0;whiteSpace=wrap;html=1;" vertex="1" parent="1">
          <mxGeometry x="540" y="190" width="120" height="60" as="geometry" />
        </mxCell>
        <mxCell id="Dfv1Ka44aFAMhyJm6wYF-14" value="&lt;font style=&quot;font-size: 18px&quot;&gt;信息发送&lt;/font&gt;" style="rounded=0;whiteSpace=wrap;html=1;" vertex="1" parent="1">
          <mxGeometry x="540" y="340" width="120" height="60" as="geometry" />
        </mxCell>
        <mxCell id="Dfv1Ka44aFAMhyJm6wYF-20" value="&lt;font style=&quot;font-size: 18px&quot;&gt;信息收集部分&lt;/font&gt;" style="text;html=1;strokeColor=none;fillColor=none;align=center;verticalAlign=middle;whiteSpace=wrap;rounded=0;" vertex="1" parent="1">
          <mxGeometry x="130" y="150" width="130" height="30" as="geometry" />
        </mxCell>
        <mxCell id="Dfv1Ka44aFAMhyJm6wYF-22" value="&lt;font style=&quot;font-size: 18px&quot;&gt;信息处理部分&lt;/font&gt;" style="text;html=1;strokeColor=none;fillColor=none;align=center;verticalAlign=middle;whiteSpace=wrap;rounded=0;" vertex="1" parent="1">
          <mxGeometry x="349" y="240" width="130" height="30" as="geometry" />
        </mxCell>
        <mxCell id="Dfv1Ka44aFAMhyJm6wYF-23" value="&lt;font style=&quot;font-size: 18px&quot;&gt;信息使用部分&lt;/font&gt;" style="text;html=1;strokeColor=none;fillColor=none;align=center;verticalAlign=middle;whiteSpace=wrap;rounded=0;" vertex="1" parent="1">
          <mxGeometry x="500" y="150" width="130" height="30" as="geometry" />
        </mxCell>
      </root>
    </mxGraphModel>
  </diagram>
</mxfile>
